<svg viewBox="0 0 40 48" xmlns="http://www.w3.org/2000/svg" fill="none">
  <path d="M9 30 L31 30 C32.5 38, 26 43, 20 43 C14 43, 7.5 38, 9 30 Z" fill="#008080" opacity="0.85"/>
  <circle cx="14" cy="36" r="0.9" fill="#ffffff" opacity="0.55"/>
  <circle cx="22" cy="40" r="0.6" fill="#ffffff" opacity="0.45"/>
  <circle cx="18" cy="38" r="1.1" fill="#ffffff" opacity="0.35"/>
  <path d="M14 4 L14 18 L6 32 C4 38, 9 44, 20 44 C31 44, 36 38, 34 32 L26 18 L26 4" stroke="#008080" stroke-width="2" stroke-linecap="round" stroke-linejoin="round"/>
  <line x1="13" y1="4" x2="27" y2="4" stroke="#008080" stroke-width="2" stroke-linecap="round"/>
  <line x1="18" y1="8" x2="22" y2="8" stroke="#008080" stroke-width="1" stroke-linecap="round" opacity="0.55"/>
  <line x1="18" y1="11" x2="22" y2="11" stroke="#008080" stroke-width="1" stroke-linecap="round" opacity="0.55"/>
  <line x1="18" y1="14" x2="22" y2="14" stroke="#008080" stroke-width="1" stroke-linecap="round" opacity="0.55"/>
  <circle cx="32" cy="36" r="5" fill="#22C55E" stroke="#ffffff" stroke-width="1.2"/>
  <path d="M29.7 36.2 L31.4 37.7 L34.4 34.6" stroke="#ffffff" stroke-width="1.6" stroke-linecap="round" stroke-linejoin="round"/>
</svg>
